<svg viewBox="0 0 24 24" version="1.1" xmlns="http://www.w3.org/2000/svg" xmlns:xlink="http://www.w3.org/1999/xlink" preserveAspectRatio="xMidYMid meet" focusable="false" class="style-scope yt-icon" style="pointer-events: none; display: block; width: 100%; height: 100%;">
  <defs class="style-scope yt-icon">
    <radialGradient cx="5.4%" cy="7.11%" r="107.93%" fx="5.4%" fy="7.11%" gradientTransform="matrix(.70653 0 0 1 .016 0)" class="style-scope yt-icon">
      <stop offset="0%" stop-color="#FFF" class="style-scope yt-icon"></stop>
      <stop offset="100%" stop-color="#FFF" stop-opacity="0" class="style-scope yt-icon"></stop>
    </radialGradient>
  </defs>
  <path fill="#F00" d="M22.54 7.6s-.2-1.5-.86-2.17c-.83-.87-1.75-.88-2.18-.93-3.04-.22-7.6-.2-7.6-.2s-4.56-.02-7.6.2c-.43.05-1.35.06-2.18.93-.65.67-.86 2.18-.86 2.18S1.04 9.4 1 11.18v1.66c.04 1.78.26 3.55.26 3.55s.2 1.5.86 2.18c.83.87 1.9.84 2.4.94 1.7.15 7.2.2 7.38.2 0 0 4.57 0 7.6-.22.43-.05 1.35-.06 2.18-.93.65-.67.86-2.18.86-2.18s.22-1.77.24-3.55v-1.66c-.02-1.78-.24-3.55-.24-3.55z" class="style-scope yt-icon"></path>
  <path fill="#FAFAFA" d="M9.68 8.9v6.18l5.84-3.1" class="style-scope yt-icon"></path>
  <path fill="#000" fill-opacity=".12" d="M9.68 8.88l5.13 3.48.73-.38" class="style-scope yt-icon"></path>
</svg>